# xmcd CD database file
#
# Track frame offsets:
#	150
#	9831
#	24184
#	33820
#	43387
#	50613
#	62018
#	70929
#	83034
#	100292
#	111100
#	124801
#	138262
#	149448
#	161218
#	167943
#	180891
#	199001
#	209173
#	220679
#
# Disc length: 3070 seconds
#
# Revision: 2
# Processed by: cddbd v1.5.2PL0 Copyright (c) Steve Scherf et al.
# Submitted via: CDex 1.95
#
DISCID=1c0bfc14
DTITLE=Various Artist - Golden Country Hits Vol22 Cd1
DYEAR=1999
DGENRE=Oldies
TTITLE0=Kitty Wells - Whose Shoulder Will You Cry On
TTITLE1=Frankie Laine - There Must Be A Reason
TTITLE2=Faron Young - Alone With You
TTITLE3=Carl Perkins - Rail Mans Children
TTITLE4=Barbara Mandrell - Kentucky Means Paradise
TTITLE5=Hoyt Axton - South Bound
TTITLE6=George Jones - Please Don't Let That Woman
TTITLE7=Freddy Fender - You've Lost A Good Thing
TTITLE8=Bob Wills - Don't Cry Baby
TTITLE9=Conway Twitty - Big Town
TTITLE10=Don Williams - I'm Just A Country Boy
TTITLE11=Barbara Fairchild - Teddy Bear Song
TTITLE12=Ferlin Husky - I Feel Better All Over
TTITLE13=Porter Wagoner- Touching Memories
TTITLE14=Oak Ridge Boys - Victory Is Coming
TTITLE15=Mickey Gilley - Object Of My Affection
TTITLE16=John Brack and Jeff Turner - Love Lifted Me
TTITLE17=George Jones - Walk Through This World With
TTITLE18=George Jones - A House Without Love Is Not A Home
TTITLE19=Freddy Fender - High School Dance
EXTD=YEAR: 1999
EXTT0=
EXTT1=
EXTT2=
EXTT3=
EXTT4=
EXTT5=
EXTT6=
EXTT7=
EXTT8=
EXTT9=
EXTT10=
EXTT11=
EXTT12=
EXTT13=
EXTT14=
EXTT15=
EXTT16=
EXTT17=
EXTT18=
EXTT19=
PLAYORDER=
